<svg width="1440" height="1024" viewBox="0 0 1440 1024" fill="none" xmlns="http://www.w3.org/2000/svg">
<path d="M1060.53 1158.38C589.509 702.909 25.0502 106.862 -199.001 -28.4998L-120 380.5L-91.0004 1138.55L852.999 1138.55C935.322 1138.55 1003.42 1146.04 1060.53 1158.38C1294.15 1384.29 1504.79 1575.62 1639.5 1659C2045.82 1910.5 1639.5 1360.5 1484.5 1378.5C1355.92 1393.43 1338.48 1218.46 1060.53 1158.38Z" fill="#222222"/>
<path d="M-199.001 -28.4998C136.176 174 1233.18 1407.5 1639.5 1659C2045.82 1910.5 1639.5 1360.5 1484.5 1378.5C1329.5 1396.5 1336 1138.55 852.999 1138.55C369.999 1138.55 -91.0004 1138.55 -91.0004 1138.55L-120 380.5L-199.001 -28.4998Z" stroke="black"/>
</svg>
