<svg width="1440" height="1024" viewBox="0 0 1440 1024" fill="none" xmlns="http://www.w3.org/2000/svg">
<path d="M337.047 -113.805C814.66 376.461 1383.27 1013.15 1616.52 1166.77L1561.19 758.9L1586.18 14.0042L560.957 -74.85C471.551 -82.5986 398.147 -96.3453 337.047 -113.805C100.158 -356.971 -114.344 -564.116 -254.436 -658.432C-676.981 -942.909 -276.678 -366.185 -107 -369.218C33.757 -371.735 39.6637 -198.787 337.047 -113.805Z" fill="#222222"/>
<path d="M1616.52 1166.77C1267.59 936.961 168.109 -373.955 -254.436 -658.432C-676.981 -942.909 -276.678 -366.185 -107 -369.218C62.6767 -372.252 36.3984 -120.313 560.957 -74.85C1085.52 -29.3875 1586.18 14.0043 1586.18 14.0043L1561.19 758.9L1616.52 1166.77Z" stroke="black"/>
</svg>
